<svg width="292" height="84" viewBox="0 0 292 84" xmlns="http://www.w3.org/2000/svg" xmlns:xlink="http://www.w3.org/1999/xlink"><title>Logo_Wordmark_horizontal_white</title><defs><path id="a" d="M0 .343h291.736v82.796H0z"/></defs><g fill="none" fill-rule="evenodd"><path d="M89.44 47.358l1.109-1.313c1.653 1.494 3.239 2.242 5.436 2.242 2.129 0 3.533-1.133 3.533-2.696v-.045c0-1.472-.793-2.31-4.122-3.013-3.647-.792-5.323-1.97-5.323-4.574v-.046c0-2.491 2.197-4.326 5.21-4.326 2.31 0 3.963.657 5.571 1.948l-1.042 1.381c-1.472-1.2-2.944-1.72-4.575-1.72-2.06 0-3.375 1.132-3.375 2.559v.045c0 1.495.816 2.332 4.304 3.08 3.534.77 5.164 2.062 5.164 4.485v.045c0 2.719-2.265 4.485-5.414 4.485-2.513 0-4.574-.838-6.477-2.537M104.975 33.813h1.812l5.776 8.653 5.775-8.653h1.812v15.855h-1.789V36.826l-5.775 8.494h-.091l-5.776-8.471v12.82h-1.744zM134.33 43.87l-3.6-8.086-3.624 8.086h7.225zm-4.416-10.17h1.676l7.225 15.968h-1.925l-1.857-4.19h-8.63l-1.88 4.19h-1.834l7.225-15.968zM140.58 47.358l1.11-1.313c1.654 1.494 3.239 2.242 5.436 2.242 2.13 0 3.533-1.133 3.533-2.696v-.045c0-1.472-.792-2.31-4.121-3.013-3.648-.792-5.324-1.97-5.324-4.574v-.046c0-2.491 2.197-4.326 5.21-4.326 2.31 0 3.964.657 5.571 1.948l-1.042 1.381c-1.471-1.2-2.944-1.72-4.575-1.72-2.06 0-3.375 1.132-3.375 2.559v.045c0 1.495.816 2.332 4.304 3.08 3.534.77 5.164 2.062 5.164 4.485v.045c0 2.719-2.265 4.485-5.413 4.485-2.514 0-4.575-.838-6.478-2.537M155.53 33.813h1.79v7.045h9.15v-7.045h1.79v15.855h-1.79v-7.135h-9.15v7.135h-1.79z" fill="#FFF"/><mask id="b" fill="#fff"><use xlink:href="#a"/></mask><path fill="#FFF" mask="url(#b)" d="M172.901 33.813h1.79v15.855h-1.79zM179.332 33.813h1.676l9.989 12.707V33.813h1.744v15.855h-1.427l-10.238-13.001v13.001h-1.744zM195.936 41.786v-.045c0-4.349 3.193-8.2 7.95-8.2 2.673 0 4.326.77 5.912 2.107l-1.156 1.359c-1.222-1.064-2.582-1.812-4.824-1.812-3.51 0-6.025 2.967-6.025 6.5v.046c0 3.782 2.424 6.59 6.274 6.59 1.812 0 3.488-.701 4.575-1.585v-3.94h-4.824v-1.609h6.546v6.32a9.609 9.609 0 0 1-6.365 2.423c-4.982 0-8.063-3.624-8.063-8.154M222.768 46.61c1.54 0 2.469-.543 2.469-1.72v-.046c0-1.064-.793-1.722-2.583-1.722h-4.031v3.489h4.145zm-.929-6.387c1.54 0 2.514-.498 2.514-1.675v-.046c0-1.042-.815-1.63-2.288-1.63h-3.442v3.351h3.216zm-6.614-6.41h7.362c1.812 0 3.238.499 4.144 1.405.725.725 1.088 1.607 1.088 2.696v.044c0 1.79-.952 2.786-2.084 3.42 1.835.703 2.967 1.767 2.967 3.896v.046c0 2.899-2.356 4.349-5.934 4.349h-7.543V33.813zM244.08 41.786v-.045c0-2.718-1.994-4.983-4.803-4.983-2.808 0-4.757 2.22-4.757 4.937v.046c0 2.718 1.994 4.983 4.803 4.983 2.808 0 4.756-2.22 4.756-4.938m-13.205 0v-.045c0-4.508 3.556-8.2 8.449-8.2 4.892 0 8.403 3.647 8.403 8.154v.046c0 4.507-3.556 8.199-8.45 8.199-4.891 0-8.402-3.647-8.402-8.154"/><path fill="#FFF" mask="url(#b)" d="M252.85 41.605l-5.3-7.791h4.076l3.308 5.141 3.374-5.141h3.964l-5.3 7.746 5.526 8.108h-4.077l-3.556-5.436-3.578 5.436h-3.964zM265.101 33.813h11.96v3.103h-8.494v3.216h7.474v3.104h-7.474v3.33h8.607v3.102H265.1zM279.188 47.358l2.06-2.47c1.428 1.18 2.922 1.926 4.735 1.926 1.427 0 2.287-.566 2.287-1.495v-.045c0-.883-.543-1.336-3.194-2.015-3.194-.816-5.254-1.699-5.254-4.847v-.046c0-2.877 2.31-4.78 5.549-4.78 2.31 0 4.28.726 5.89 2.017l-1.813 2.627c-1.404-.974-2.786-1.563-4.122-1.563-1.337 0-2.039.612-2.039 1.382v.046c0 1.041.68 1.381 3.42 2.083 3.216.838 5.028 1.993 5.028 4.757v.045c0 3.149-2.4 4.915-5.82 4.915-2.402 0-4.825-.838-6.727-2.537M48.893 43.92h-6.316v5.503h6.493c2.413 0 3.867-.856 3.867-2.715v-.071c0-1.68-1.24-2.717-4.044-2.717"/><path d="M58.366 47.387c0 4.574-3.688 6.86-9.296 6.86H37.254V29.234h11.533c2.838 0 5.073.787 6.494 2.216 1.133 1.143 1.702 2.537 1.702 4.251v.072c0 2.823-1.492 4.396-3.265 5.397 2.875 1.107 4.648 2.786 4.648 6.145v.072zm-25.867-.536c0 4.967-3.763 7.753-9.119 7.753-3.762 0-7.56-1.32-10.54-4.001l3.23-3.895c2.234 1.859 4.578 3.037 7.416 3.037 2.234 0 3.583-.893 3.583-2.358v-.072c0-1.394-.85-2.107-5.002-3.18-5.004-1.286-8.232-2.68-8.232-7.647v-.072c0-4.538 3.619-7.539 8.692-7.539 3.62 0 6.707 1.144 9.227 3.18l-2.84 4.146c-2.198-1.537-4.364-2.467-6.456-2.467-2.095 0-3.194.964-3.194 2.18v.073c0 1.643 1.064 2.179 5.357 3.285C29.66 40.597 32.5 42.42 32.5 46.78v.072zM35.602.342L0 21.042V62.44l35.602 20.7 35.603-20.7V21.042L35.602.342z" fill="#FFF" mask="url(#b)"/><path d="M51.552 36.702v-.072c0-1.642-1.275-2.571-3.583-2.571h-5.392v5.287h5.038c2.413 0 3.937-.785 3.937-2.644" fill="#FFF" mask="url(#b)"/></g></svg>