<svg id="Layer_1" xmlns="http://www.w3.org/2000/svg" xmlns:xlink="http://www.w3.org/1999/xlink" width="140.1" height="82" viewBox="0 0 140.1 82"><style>.st0{fill:none}.st1{fill-rule:evenodd;clip-rule:evenodd}</style><path d="M0 80.6l.7-.8c1 .9 2 1.4 3.4 1.4 1.3 0 2.2-.7 2.2-1.7 0-.9-.5-1.4-2.5-1.9-2.3-.5-3.3-1.2-3.3-2.8 0-1.5 1.4-2.7 3.2-2.7 1.4 0 2.5.4 3.4 1.2l-.6.9c-1-.8-1.9-1.2-2.9-1.2-1.3 0-2.1.7-2.1 1.6 0 .9.5 1.4 2.7 1.9s3.2 1.3 3.2 2.8C7.4 81 6 82.1 4 82.1c-1.5 0-2.8-.5-4-1.5zM10.8 72.2h1.1l3.6 5.4 3.6-5.4h1.1V82H19v-7.9l-3.6 5.3h-.1l-3.6-5.2V82h-1.1v-9.8zM27.7 72.1h1l4.5 9.9H32l-1.1-2.6h-5.3L24.4 82h-1.1l4.4-9.9zm2.7 6.3l-2.2-5-2.2 5h4.4zM35.5 80.6l.7-.8c1 .9 2 1.4 3.4 1.4 1.3 0 2.2-.7 2.2-1.7 0-.9-.5-1.4-2.5-1.9-2.3-.5-3.3-1.2-3.3-2.8 0-1.5 1.4-2.7 3.2-2.7 1.4 0 2.5.4 3.4 1.2l-.6.9c-1-.8-1.9-1.2-3-1.2-1.3 0-2.1.7-2.1 1.6 0 .9.5 1.4 2.7 1.9s3.2 1.3 3.2 2.8c0 1.7-1.4 2.8-3.3 2.8-1.6 0-2.9-.5-4-1.5zM46.2 72.2h1.1v4.4H53v-4.4h1.1V82H53v-4.4h-5.7V82h-1.1v-9.8zM58.1 72.2h1.1V82h-1.1v-9.8zM63.3 72.2h1l6.2 7.9v-7.9h1.1V82h-.9l-6.3-8v8h-1.1v-9.8zM75.1 77.1c0-2.7 2-5.1 4.9-5.1 1.7 0 2.7.5 3.7 1.3l-.7.8c-.8-.7-1.6-1.1-3-1.1-2.2 0-3.7 1.8-3.7 4 0 2.3 1.5 4.1 3.9 4.1 1.1 0 2.2-.4 2.8-1v-2.4h-3v-1h4v3.9c-.9.8-2.3 1.5-3.9 1.5-3.1.1-5-2.2-5-5zM87.5 72.2H92c1.1 0 2 .3 2.6.9.4.4.7 1 .7 1.7 0 1.1-.6 1.7-1.3 2.1 1.1.4 1.8 1.1 1.8 2.4 0 1.8-1.5 2.7-3.7 2.7h-4.7v-9.8zm4 4c1 0 1.6-.3 1.6-1 0-.6-.5-1-1.4-1h-2.1v2.1h1.9zm.6 3.9c1 0 1.5-.3 1.5-1.1 0-.7-.5-1.1-1.6-1.1h-2.5v2.2h2.6zM98.3 77.1c0-2.8 2.2-5.1 5.2-5.1s5.2 2.3 5.2 5c0 2.8-2.2 5.1-5.2 5.1s-5.2-2.2-5.2-5zm8.2 0c0-1.7-1.2-3.1-3-3.1-1.7 0-2.9 1.4-2.9 3.1 0 1.7 1.2 3.1 3 3.1s2.9-1.4 2.9-3.1zM113.8 77l-3.3-4.8h2.5l2 3.2 2.1-3.2h2.5l-3.3 4.8 3.4 5h-2.5l-2.2-3.4-2.2 3.4h-2.5l3.5-5zM122.5 72.2h7.4v1.9h-5.3v2h4.6V78h-4.6v2.1h5.3V82h-7.5v-9.8zM132.4 80.6l1.3-1.5c.9.7 1.8 1.2 2.9 1.2.9 0 1.4-.4 1.4-.9s-.3-.8-2-1.2c-2-.5-3.2-1.1-3.2-3 0-1.8 1.4-3 3.4-3 1.4 0 2.6.4 3.6 1.2l-1.1 1.6c-.9-.6-1.7-1-2.5-1s-1.3.4-1.3.9c0 .6.4.9 2.1 1.3 2 .5 3.1 1.2 3.1 2.9 0 1.9-1.5 3-3.6 3-1.5 0-3-.5-4.1-1.5z"/><path class="st0" d="M-639.7-4048h1420V152h-1420z"/><path class="st0" d="M-639.7-4048h1420V152h-1420z"/><path class="st0" d="M-639.7-4048h1420V152h-1420z"/><defs><path id="SVGID_1_" d="M-612.2-4046.2h1420v4200h-1420z"/></defs><clipPath id="SVGID_2_"><use xlink:href="#SVGID_1_" overflow="visible"/></clipPath><path class="st1" d="M79.9 30.3h-4.3v3.8H80c1.7 0 2.7-.6 2.7-1.9 0-1.2-.9-1.9-2.8-1.9z"/><path class="st1" d="M70.7.1L46.3 14.4v28.7l24.5 14.3 24.5-14.3V14.4L70.7.1zm-2.1 32.2c0 3.4-2.6 5.4-6.3 5.4-2.6 0-5.2-.9-7.2-2.8l2.2-2.7c1.5 1.3 3.1 2.1 5.1 2.1 1.5 0 2.5-.6 2.5-1.6s-.6-1.5-3.4-2.2c-3.4-.9-5.7-1.9-5.7-5.3 0-3.1 2.5-5.2 6-5.2 2.5 0 4.6.8 6.3 2.2l-2 2.9c-1.5-1.1-3-1.7-4.4-1.7-1.4 0-2.2.7-2.2 1.5v.1c0 1.1.7 1.5 3.7 2.3 3.5.7 5.4 2 5.4 5zm17.8.4c0 3.2-2.5 4.8-6.4 4.8h-8.1V20.1h7.9c2 0 3.5.5 4.5 1.5.8.8 1.2 1.8 1.2 2.9 0 2-1 3-2.2 3.7 1.9 1 3.1 2.1 3.1 4.5z"/><path class="st1" d="M81.7 25.3c0-1.2-.9-1.8-2.5-1.8h-3.7v3.7H79c1.7-.1 2.7-.6 2.7-1.9z"/></svg>